# xmcd CD database file
#
# Track frame offsets:
#	150
#	11471
#	24302
#	37250
#	50323
#	64782
#	81556
#	91786
#	101932
#	113168
#	127145
#	141810
#	154187
#	165726
#	177276
#	189999
#	200569
#	220316
#	230699
#	248305
#	265756
#	281101
#	307424
#	317538
#
# Disc length: 4379 seconds
#
# Revision: 1
# Processed by: cddbd v1.5.1PL0 Copyright (c) Steve Scherf et al.
# Submitted via: CDex 1.50
#
DISCID=5c111918
DTITLE=Bluesberry - Malostranska beseda - 25 let
DYEAR=1997
DGENRE=Blues
TTITLE0=Pocem moje stara
TTITLE1=Necekej ze se vratim
TTITLE2=Dobrejtro blues
TTITLE3=Blues posledni Startky
TTITLE4=Zase stace za staci
TTITLE5=Blues ve stinu lipy
TTITLE6=Padevet
TTITLE7=Veprova
TTITLE8=Zase je to soufl
TTITLE9=Nove wafky
TTITLE10=Co je to blues
TTITLE11=Blues opusteny silnice
TTITLE12=Vikend s Manou
TTITLE13=Brandejs
TTITLE14=HP City
TTITLE15=Neznam svoje jmeno
TTITLE16=Podivnej sen
TTITLE17=Veprovy ovar
TTITLE18=Klanovice
TTITLE19=Aspon se usmej, baby
TTITLE20=Mejdan
TTITLE21=Az budu chtit tak zavolam
TTITLE22=Rekreace s ROH
TTITLE23=Metarsky blues
EXTD=YEAR: 1997
EXTT0=
EXTT1=
EXTT2=
EXTT3=
EXTT4=
EXTT5=
EXTT6=
EXTT7=
EXTT8=
EXTT9=
EXTT10=
EXTT11=
EXTT12=
EXTT13=
EXTT14=
EXTT15=
EXTT16=
EXTT17=
EXTT18=
EXTT19=
EXTT20=
EXTT21=
EXTT22=
EXTT23=
PLAYORDER=
